<?xml version="1.0" encoding="utf-8"?>
<!-- Generator: Adobe Illustrator 24.0.0, SVG Export Plug-In . SVG Version: 6.00 Build 0)  -->
<svg version="1.1" id="Layer_1" xmlns="http://www.w3.org/2000/svg" xmlns:xlink="http://www.w3.org/1999/xlink" x="0px" y="0px"
	 viewBox="0 0 500 500" style="enable-background:new 0 0 500 500;" xml:space="preserve">
<style type="text/css">
	.st0{fill:#13334F;}
</style>
<path class="st0" d="M500.03,250.07c0.04,35.46-7.48,70.51-22.07,102.83c-7.77-66.66-64.25-116.93-131.37-116.93h-25.19v-50.66
	c0.03-7.05-2.77-13.82-7.78-18.8l-40.06-40.07c7.63-11.03,4.88-26.16-6.15-33.79c-11.03-7.63-26.16-4.88-33.79,6.15
	c-7.63,11.03-4.88,26.16,6.15,33.79c8.1,5.61,18.8,5.77,27.06,0.39l40.16,40.14c3.24,3.21,5.05,7.59,5.03,12.15v50.66h-25.21
	c-73.06,0.05-132.24,59.31-132.19,132.37c0.05,66.17,48.98,122.13,114.56,131c-6.33,0.49-12.73,0.73-19.19,0.73
	C111.92,500.03,0,388.05,0,250.03C-0.01,154.64,54.27,67.56,139.91,25.56v62.81c0,6.12,0.88,10.31,5.53,14.97l30.75,30.74
	c-5.29,7.86-3.2,18.51,4.65,23.8c7.86,5.29,18.51,3.2,23.8-4.65c5.29-7.86,3.2-18.51-4.65-23.8c-5.7-3.83-13.13-3.9-18.9-0.16
	l-30.82-30.82c-2.81-2.79-3.53-4.89-3.53-10.13V22.25C179.18,7.54,214.39-0.05,250,0C388.1,0.06,500.03,111.99,500.03,250.07z"/>
<path class="st0" d="M283.7,371.8c0.01,17.56-14.21,31.8-31.76,31.81c-17.56,0.01-31.8-14.21-31.81-31.76
	c-0.01-17.56,14.21-31.8,31.76-31.81c0.01,0,0.02,0,0.02,0C269.46,340.03,283.69,354.25,283.7,371.8L283.7,371.8z"/>
<path class="st0" d="M414.71,371.8c0.02,17.56-14.2,31.82-31.76,31.84c-17.56,0.02-31.82-14.2-31.84-31.76
	c-0.02-17.56,14.2-31.82,31.76-31.84c0.02,0,0.03,0,0.05,0C400.47,340.03,414.7,354.25,414.71,371.8z"/>
</svg>
