<?xml version="1.0" encoding="utf-8"?>
<!-- Generator: Adobe Illustrator 24.0.0, SVG Export Plug-In . SVG Version: 6.00 Build 0)  -->
<svg version="1.1" id="Layer_1" xmlns="http://www.w3.org/2000/svg" xmlns:xlink="http://www.w3.org/1999/xlink" x="0px" y="0px"
	 viewBox="0 0 500 85" style="enable-background:new 0 0 500 85;" xml:space="preserve">
<style type="text/css">
	.st0{fill:#13334F;}
</style>
<path class="st0" d="M84.51,76.98c0.69,1.28,0.82,2.79,0.35,4.17c-0.44,1.38-1.39,2.53-2.65,3.23c-1.31,0.66-2.83,0.79-4.23,0.35
	c-1.4-0.45-2.56-1.44-3.22-2.75L41.73,17.61l-31.27,64.3c-0.95,1.85-2.85,3.03-4.93,3.05c-0.83,0-1.65-0.18-2.41-0.53
	c-1.34-0.62-2.36-1.77-2.81-3.17c-0.48-1.38-0.39-2.9,0.24-4.22L36.68,2.89c1.3-2.73,4.57-3.89,7.3-2.59
	C45.1,0.83,46,1.72,46.54,2.82L84.51,76.98z"/>
<path class="st0" d="M122.17,1.47c1.05,1.04,1.62,2.46,1.59,3.94v73.98c0.02,1.47-0.56,2.89-1.59,3.93
	c-1.02,1.03-2.42,1.61-3.87,1.58c-1.47,0.03-2.89-0.54-3.93-1.58c-1.03-1.04-1.6-2.46-1.58-3.93V5.41c0-3.04,2.46-5.52,5.5-5.52
	C119.75-0.12,121.14,0.45,122.17,1.47z"/>
<path class="st0" d="M160.37,1.47c1.05,1.04,1.62,2.46,1.59,3.94v73.98c0.02,1.47-0.56,2.89-1.59,3.93
	c-1.02,1.03-2.42,1.61-3.87,1.58c-1.47,0.03-2.89-0.54-3.93-1.58c-1.03-1.04-1.6-2.46-1.58-3.93V5.41c0-3.04,2.46-5.52,5.5-5.52
	C157.95-0.12,159.34,0.45,160.37,1.47z"/>
<path class="st0" d="M272.61,1.53c1.08,0.99,1.68,2.41,1.65,3.88c0,3.04-2.47,5.51-5.51,5.51h-31.5v68.82
	c0.02,1.45-0.55,2.85-1.58,3.87c-1.04,1.05-2.46,1.65-3.94,1.65c-1.46,0.01-2.86-0.59-3.87-1.65c-1.08-0.99-1.68-2.4-1.65-3.87
	V10.92h-31.5c-1.45,0.03-2.86-0.55-3.88-1.58c-1.05-1.03-1.65-2.45-1.64-3.93c0.02-3.03,2.48-5.47,5.51-5.46h74.04
	C270.19-0.07,271.59,0.5,272.61,1.53z"/>
<path class="st0" d="M387.19,79.03c0.02,1.48-0.57,2.91-1.65,3.93c-2.15,2.11-5.59,2.11-7.74,0c-1.07-1.02-1.66-2.45-1.64-3.93
	c-0.06-17.18-13.97-31.09-31.16-31.15h-32.55v31.15c0.02,1.47-0.56,2.89-1.59,3.93c-2.17,2.11-5.63,2.11-7.8,0
	c-1.04-1.04-1.61-2.46-1.58-3.93V5.28c-0.02-1.47,0.55-2.88,1.58-3.93c1.02-1.03,2.42-1.6,3.87-1.58h56.03
	c12.26,0.06,22.18,9.98,22.24,22.24v4.04c0,9.16-4.75,15.79-14.16,19.89C381.79,54.58,387.18,65.6,387.19,79.03z M371.18,33.16
	c1.94-1.84,3.02-4.41,2.99-7.08v-4.04c0-6.19-5.02-11.2-11.2-11.2h-50.51v25.34h51.62C366.76,36.21,369.34,35.11,371.18,33.16
	L371.18,33.16z"/>
<path class="st0" d="M499.37,76.98c0.7,1.28,0.82,2.79,0.35,4.17c-0.91,2.88-3.99,4.47-6.87,3.56c-0.02-0.01-0.03-0.01-0.05-0.02
	c-1.4-0.45-2.56-1.44-3.22-2.75l-33.03-64.36l-31.24,64.33c-0.95,1.85-2.85,3.03-4.93,3.05c-0.83,0-1.65-0.18-2.41-0.53
	c-1.34-0.62-2.36-1.77-2.81-3.17c-0.48-1.38-0.39-2.9,0.24-4.22l36.14-74.15c1.3-2.73,4.57-3.89,7.3-2.59
	c1.11,0.53,2.01,1.42,2.56,2.52L499.37,76.98z"/>
</svg>
