<?xml version="1.0" encoding="utf-8"?>
<!-- Generator: Adobe Illustrator 24.0.0, SVG Export Plug-In . SVG Version: 6.00 Build 0)  -->
<svg version="1.1" id="Layer_1" xmlns="http://www.w3.org/2000/svg" xmlns:xlink="http://www.w3.org/1999/xlink" x="0px" y="0px"
	 viewBox="0 0 500 500" style="enable-background:new 0 0 500 500;" xml:space="preserve">
<style type="text/css">
	.st0{fill:#326387;}
</style>
<path class="st0" d="M500,250.1c0,35.5-7.5,70.5-22.1,102.8C470.2,286.2,413.7,236,346.6,236h-25.2v-50.7c0-7.1-2.8-13.8-7.8-18.8
	l-40.1-40.1c7.6-11,4.9-26.2-6.1-33.8s-26.2-4.9-33.8,6.2s-4.9,26.2,6.1,33.8c8.1,5.6,18.8,5.8,27.1,0.4l40.2,40.1
	c3.2,3.2,5,7.6,5,12.1v50.7h-25.2c-73.1,0.1-132.2,59.3-132.2,132.4c0.1,66.2,49,122.1,114.6,131c-6.3,0.5-12.7,0.7-19.2,0.7
	C111.9,500,0,388,0,250C0,154.6,54.3,67.6,139.9,25.6v62.8c0,6.1,0.9,10.3,5.5,15l30.8,30.7c-5.3,7.9-3.2,18.5,4.6,23.8
	c7.9,5.3,18.5,3.2,23.8-4.6c5.3-7.9,3.2-18.5-4.6-23.8c-5.7-3.8-13.1-3.9-18.9-0.2l-30.8-30.8c-2.8-2.8-3.5-4.9-3.5-10.1V22.3
	C179.2,7.5,214.4-0.1,250,0C388.1,0.1,500,112,500,250.1z"/>
<path class="st0" d="M283.7,371.8c0,17.6-14.2,31.8-31.8,31.8c-17.6,0-31.8-14.2-31.8-31.8c0-17.6,14.2-31.8,31.8-31.8c0,0,0,0,0,0
	C269.5,340,283.7,354.3,283.7,371.8L283.7,371.8z"/>
<path class="st0" d="M414.7,371.8c0,17.6-14.2,31.8-31.8,31.8s-31.8-14.2-31.8-31.8s14.2-31.8,31.8-31.8c0,0,0,0,0,0
	C400.5,340,414.7,354.3,414.7,371.8z"/>
</svg>
